# xmcd CD database file
#
# Track frame offsets:
#	150
#	13938
#	27713
#	40225
#	55333
#	69568
#	82991
#	100302
#	114683
#	126877
#	140485
#	153780
#	168342
#	180655
#	194144
#	209400
#	222371
#	235613
#	249685
#	262062
#	276404
#	289230
#	302652
#	317876
#
# Disc length: 4422 seconds
#
# Revision: 0
# Processed by: cddbd v1.5.2PL0 Copyright (c) Steve Scherf et al.
# Submitted via: CDex 1.51
#
DISCID=77114418
DTITLE=Hadda Brooks - That's Where I Came In
DYEAR=1900
DGENRE=Jazz
TTITLE0=Keep Your Hand On Your Heart
TTITLE1=Take Me
TTITLE2=Why Was I Born
TTITLE3=Always (Take 3)
TTITLE4=Anna Lucasta (Take 1)
TTITLE5=The Best Things In Life Are Free
TTITLE6=That's My Desire (Version 1)
TTITLE7=That's Where I Came In
TTITLE8=Sailboat In The Moonlight
TTITLE9=I'm The Lonesomest Gal In Town
TTITLE10=Can't We Be Friends
TTITLE11=Tomorrow Night
TTITLE12=You're Real Gone
TTITLE13=This Will Make You Laugh
TTITLE14=I Must Have That Man
TTITLE15=My First And Last Love
TTITLE16=What Have I Done
TTITLE17=This Time We're Trough
TTITLE18=I'll Get Be
TTITLE19=You Won't Let Me Go (Version 1)
TTITLE20=Please Be Kind
TTITLE21=I Can't Get Started
TTITLE22=After You've Gone
TTITLE23=Out Of The Blue
EXTD=
EXTT0=
EXTT1=
EXTT2=
EXTT3=
EXTT4=
EXTT5=
EXTT6=
EXTT7=
EXTT8=
EXTT9=
EXTT10=
EXTT11=
EXTT12=
EXTT13=
EXTT14=
EXTT15=
EXTT16=
EXTT17=
EXTT18=
EXTT19=
EXTT20=
EXTT21=
EXTT22=
EXTT23=
PLAYORDER=
